<svg width="53" height="53" viewBox="0 0 53 53" fill="none" xmlns="http://www.w3.org/2000/svg">
<path d="M38.6607 44.8192C33.019 48.119 25.2977 48.4587 17.4807 45.0619C11.1697 42.3444 5.93445 37.5888 2.58772 32.1538C4.18937 33.4883 6.07788 34.5801 8.08592 35.5507C16.142 39.36 24.1741 39.0931 29.8396 35.5507C21.7836 29.2665 14.9228 21.0898 9.831 14.4174C8.75526 13.3255 7.96639 11.9668 7.15361 10.7536C26.9471 25.4329 26.0865 29.1694 12.9148 8.30305C24.6044 20.2891 35.4574 27.0828 35.4574 27.0828C35.8398 27.3012 36.055 27.471 36.3179 27.6166C36.557 27.01 36.7721 26.3792 36.9395 25.7241C38.828 18.809 36.6765 10.875 31.9672 4.34814C42.8441 11.0205 49.2985 23.5404 46.5972 34.0463C46.5255 34.3132 46.4537 34.5801 46.4777 34.9926C51.8324 41.8591 50.3981 49.0168 49.7049 47.658C46.8123 41.8591 41.3858 43.6546 38.6607 44.8192Z" fill="#0A013B"/>
</svg>
